<svg xmlns="http://www.w3.org/2000/svg" width="60" height="60"><defs><clipPath id="a"><path clip-rule="evenodd" d="M-115-2156h1440v5379H-115z"/></clipPath></defs><g clip-path="url(#a)"><path fill="none" stroke="#00C485" stroke-width="2" d="M10.328.492V54.59a4.918 4.918 0 0 1-4.918 4.918h49.18a4.919 4.919 0 0 0 4.918-4.919V.492h-49.18V54.59a4.918 4.918 0 0 1-4.918 4.918h49.18a4.919 4.919 0 0 0 4.918-4.919V.492h-49.18z"/></g><defs><clipPath id="b"><path clip-rule="evenodd" d="M-115-2156h1440v5379H-115z"/></clipPath></defs><g clip-path="url(#b)"><path fill="none" stroke="#00C485" stroke-width="2" d="M5.41 59.508A4.918 4.918 0 0 1 .492 54.59V10.328h9.836V54.59a4.918 4.918 0 1 1-9.836 0V10.328h9.836V54.59a4.918 4.918 0 0 1-4.918 4.918z"/></g><defs><clipPath id="c"><path clip-rule="evenodd" d="M-115-2156h1440v5379H-115z"/></clipPath></defs><g clip-path="url(#c)"><path fill="none" stroke="#00C485" stroke-width="2" d="M20.164 30h29.508V10.328H20.164V30h29.508V10.328H20.164V30z"/></g><defs><clipPath id="d"><path clip-rule="evenodd" d="M-115-2156h1440v5379H-115z"/></clipPath></defs><g clip-path="url(#d)"><path fill="none" stroke="#00C485" stroke-width="2" d="M20.164 39.836h29.508-29.508 29.508"/></g><defs><clipPath id="e"><path clip-rule="evenodd" d="M-115-2156h1440v5379H-115z"/></clipPath></defs><g clip-path="url(#e)"><path fill="none" stroke="#00C485" stroke-width="2" d="M20.164 49.672h19.672-19.672 19.672"/></g></svg>
