<svg xmlns="http://www.w3.org/2000/svg" width="40" height="40"><defs><clipPath id="a"><path clip-rule="evenodd" d="M0 0h39.999v40H0z"/></clipPath></defs><g clip-path="url(#a)"><path fill="#00E2FF" d="M20 40C8.954 40 0 31.045 0 20S8.954 0 20 0s20 8.955 20 20-8.954 20-20 20S0 31.045 0 20 8.954 0 20 0s20 8.955 20 20-8.954 20-20 20"/></g><defs><clipPath id="b"><path clip-rule="evenodd" d="M-1229-5219H211V160h-1440z"/></clipPath></defs><g clip-path="url(#b)"><path fill="#FFF" d="M12.308 14.323c-1.41 0-2.326-.954-2.326-2.16 0-1.236.943-2.169 2.382-2.169 1.437 0 2.322.932 2.35 2.164 0 1.208-.913 2.165-2.377 2.165h-.03zm13.254 7.582c0-1.69-.69-2.844-2.212-2.844-1.164 0-1.809.778-2.11 1.53-.1.237-.098.555-.097.886v6.885h-4.378s.057-11.439 0-12.477h4.379v1.957c.258-.856 1.657-2.079 3.892-2.079 2.77 0 4.946 1.795 4.946 5.662v6.937h-4.42v-6.457zm-11.176 6.457h-3.9V15.885h3.9v12.477z" fill-rule="evenodd"/></g></svg>
