<svg xmlns="http://www.w3.org/2000/svg" width="40" height="40"><defs><clipPath id="a"><path clip-rule="evenodd" d="M0 0h39.999v40H0z"/></clipPath></defs><g clip-path="url(#a)"><path fill="#00E2FF" d="M20 40C8.953 40 0 31.045 0 20S8.953 0 20 0c11.045 0 20 8.955 20 20s-8.955 20-20 20C8.953 40 0 31.045 0 20S8.953 0 20 0c11.045 0 20 8.955 20 20s-8.955 20-20 20"/></g><defs><clipPath id="b"><path clip-rule="evenodd" d="M6 10h28.143v19.7H6z"/></clipPath></defs><g clip-path="url(#b)"><path fill="#FFF" d="M31.067 10.588a3.524 3.524 0 0 1 2.488 2.488c.588 2.195.588 6.774.588 6.774s0 4.579-.588 6.774a3.525 3.525 0 0 1-2.488 2.488c-2.195.588-10.996.588-10.996.588s-8.8 0-10.995-.588a3.525 3.525 0 0 1-2.488-2.488C6 24.429 6 19.85 6 19.85s0-4.579.588-6.774a3.524 3.524 0 0 1 2.488-2.488C11.271 10 20.071 10 20.071 10s8.801 0 10.996.588zm-6.518 9.262l-7.356-4.157v8.315l7.356-4.158z" fill-rule="evenodd"/></g></svg>
