<svg xmlns="http://www.w3.org/2000/svg" width="15" height="62"><defs><clipPath id="a"><path clip-rule="evenodd" d="M-116-899h1440v5379H-116z"/></clipPath></defs><g clip-path="url(#a)"><path fill="none" stroke="#FF3100" stroke-width="2" d="M5.125 55.167l4 6 4-6h-8l4 6 4-6h-8z"/></g><defs><clipPath id="b"><path clip-rule="evenodd" d="M-116-899h1440v5379H-116z"/></clipPath></defs><g clip-path="url(#b)"><path fill="none" stroke="#FF3100" stroke-width="2" d="M.5 25.422v-13.75h3.625L.5 25.422v-13.75h3.625"/></g><defs><clipPath id="c"><path clip-rule="evenodd" d="M-116-899h1440v5379H-116z"/></clipPath></defs><g clip-path="url(#c)"><path fill="none" stroke="#FF3100" stroke-width="2" d="M4.125 5.5h10v-5h-10v5h10v-5h-10v5z"/></g><defs><clipPath id="d"><path clip-rule="evenodd" d="M-116-899h1440v5379H-116z"/></clipPath></defs><g clip-path="url(#d)"><path fill="none" stroke="#FF3100" stroke-width="2" d="M4.125 52.167h10V8.5h-10v43.667h10V8.5h-10v43.667z"/></g></svg>
