<svg xmlns="http://www.w3.org/2000/svg" width="40" height="40"><defs><clipPath id="a"><path clip-rule="evenodd" d="M0 0h39.993v40H0z"/></clipPath></defs><g clip-path="url(#a)"><path fill="#00E2FF" d="M19.996 40C8.952 40 0 31.047 0 20.004v-.008C0 8.952 8.952 0 19.996 0 31.04 0 39.994 8.952 39.994 19.996v.008C39.994 31.047 31.04 40 19.996 40S0 31.047 0 20.004v-.008C0 8.952 8.952 0 19.996 0 31.04 0 39.994 8.952 39.994 19.996v.008C39.994 31.047 31.04 40 19.996 40"/></g><defs><clipPath id="b"><path clip-rule="evenodd" d="M-1174-5219H266V160h-1440z"/></clipPath></defs><g clip-path="url(#b)"><path fill="#FFF" d="M30.029 14.76a8.185 8.185 0 0 1-2.36.648c.849-.51 1.5-1.314 1.806-2.273a8.191 8.191 0 0 1-2.61.995 4.11 4.11 0 0 0-7.001 3.75 11.67 11.67 0 0 1-8.473-4.296 4.122 4.122 0 0 0-.556 2.07c0 1.422.726 2.682 1.83 3.418a4.08 4.08 0 0 1-1.863-.512v.05a4.11 4.11 0 0 0 3.299 4.03 4.1 4.1 0 0 1-1.857.073 4.112 4.112 0 0 0 3.838 2.852 8.244 8.244 0 0 1-5.104 1.76 8.51 8.51 0 0 1-.98-.055 11.637 11.637 0 0 0 6.299 1.846c7.561 0 11.693-6.264 11.693-11.696 0-.179-.004-.356-.01-.532a8.317 8.317 0 0 0 2.049-2.128 8.185 8.185 0 0 1-2.36.648c.849-.51 1.5-1.315 1.806-2.273a8.191 8.191 0 0 1-2.61.994 4.11 4.11 0 0 0-7.001 3.75 11.67 11.67 0 0 1-8.473-4.295 4.122 4.122 0 0 0-.556 2.07c0 1.422.726 2.682 1.83 3.418a4.08 4.08 0 0 1-1.863-.512v.05a4.11 4.11 0 0 0 3.299 4.03 4.1 4.1 0 0 1-1.857.073 4.112 4.112 0 0 0 3.838 2.852 8.244 8.244 0 0 1-5.104 1.76 8.51 8.51 0 0 1-.98-.055 11.637 11.637 0 0 0 6.299 1.846c7.561 0 11.693-6.264 11.693-11.696 0-.179-.004-.356-.01-.532a8.317 8.317 0 0 0 2.049-2.128"/></g></svg>
