<svg xmlns="http://www.w3.org/2000/svg" width="61" height="61"><defs><clipPath id="a"><path clip-rule="evenodd" d="M-115-3728h1440v5379H-115z"/></clipPath></defs><g clip-path="url(#a)"><path fill="none" stroke="#00E2FF" stroke-width="2" d="M60.5 30.5c0 16.568-13.431 30-30 30-16.568 0-30-13.432-30-30 0-16.568 13.432-30 30-30 16.569 0 30 13.432 30 30 0 16.568-13.431 30-30 30-16.568 0-30-13.432-30-30 0-16.568 13.432-30 30-30 16.569 0 30 13.432 30 30z"/></g><defs><clipPath id="b"><path clip-rule="evenodd" d="M-115-3728h1440v5379H-115z"/></clipPath></defs><g clip-path="url(#b)"><path fill="none" stroke="#00E2FF" stroke-width="2" d="M36.032 30.5a5.532 5.532 0 0 1-5.532 5.532 5.532 5.532 0 1 1 0-11.064 5.532 5.532 0 1 1 0 11.064 5.532 5.532 0 1 1 0-11.064 5.532 5.532 0 0 1 5.532 5.532z"/></g><defs><clipPath id="c"><path clip-rule="evenodd" d="M-115-3728h1440v5379H-115z"/></clipPath></defs><g clip-path="url(#c)"><path fill="none" stroke="#00E2FF" stroke-width="2" d="M34.2 34.605l6.015 6.014-6.014-6.014 6.014 6.014"/></g><defs><clipPath id="d"><path clip-rule="evenodd" d="M-115-3728h1440v5379H-115z"/></clipPath></defs><g clip-path="url(#d)"><path fill="none" stroke="#00E2FF" stroke-width="2" d="M33.864 26.115l12.793-12.792-12.792 12.792 12.791-12.792"/></g></svg>
